# Blender 3.4.1
# www.blender.org
mtllib Flag.mtl
o Cylinder
v 0.000000 0.000000 -0.059182
v 0.000000 5.083505 -0.059182
v 0.029591 0.000000 -0.051253
v 0.029591 5.083505 -0.051253
v 0.051253 0.000000 -0.029591
v 0.051253 5.083505 -0.029591
v 0.059182 0.000000 0.000000
v 0.059182 5.083505 0.000000
v 0.051253 0.000000 0.029591
v 0.051253 5.083505 0.029591
v 0.029591 0.000000 0.051253
v 0.029591 5.083505 0.051253
v 0.000000 0.000000 0.059182
v 0.000000 5.083505 0.059182
v -0.029591 0.000000 0.051253
v -0.029591 5.083505 0.051253
v -0.051253 0.000000 0.029591
v -0.051253 5.083505 0.029591
v -0.059182 0.000000 0.000000
v -0.059182 5.083505 0.000000
v -0.051253 0.000000 -0.029591
v -0.051253 5.083505 -0.029591
v -0.029591 0.000000 -0.051253
v -0.029591 5.083505 -0.051253
v -0.003899 4.166880 -0.021652
v -0.003899 5.066303 -0.021652
v -0.003899 4.166880 0.021652
v -0.003899 5.066303 0.021652
v 1.204736 4.616591 -0.021652
v 1.204736 4.616591 0.021652
vn -0.0000 -0.0000 -1.0000
vn 0.5000 -0.0000 -0.8660
vn 0.8660 -0.0000 -0.5000
vn 1.0000 -0.0000 -0.0000
vn 0.8660 -0.0000 0.5000
vn 0.5000 -0.0000 0.8660
vn -0.0000 -0.0000 1.0000
vn -0.5000 -0.0000 0.8660
vn -0.8660 -0.0000 0.5000
vn -1.0000 -0.0000 -0.0000
vn -0.8660 -0.0000 -0.5000
vn -0.0000 1.0000 -0.0000
vn -0.5000 -0.0000 -0.8660
vn -0.0000 -1.0000 -0.0000
vn -0.3487 0.9372 -0.0000
vn -0.3487 -0.9372 -0.0000
vt 0.979118 0.625533
vt 0.302178 0.625533
vt 0.362358 0.342729
vt 0.979118 0.964003
vt 0.170043 0.626554
vt 0.302178 0.964003
vt 0.922706 0.625533
vt 0.443591 0.320963
vt 0.922706 0.964003
vt 0.251276 0.604788
vt 0.866295 0.625533
vt 0.503058 0.261497
vt 0.866295 0.964003
vt 0.310742 0.545321
vt 0.809883 0.625533
vt 0.524824 0.180264
vt 0.809883 0.964003
vt 0.332509 0.464088
vt 0.753471 0.625533
vt 0.503058 0.099031
vt 0.753471 0.964003
vt 0.310742 0.382856
vt 0.697060 0.625533
vt 0.443591 0.039564
vt 0.697060 0.964003
vt 0.251276 0.323389
vt 0.640648 0.625533
vt 0.362358 0.017798
vt 0.640648 0.964003
vt 0.170043 0.301623
vt 0.584236 0.625533
vt 0.281126 0.039564
vt 0.584236 0.964003
vt 0.088810 0.323389
vt 0.527825 0.625533
vt 0.221659 0.099031
vt 0.527825 0.964003
vt 0.029344 0.382856
vt 0.471413 0.625533
vt 0.199893 0.180264
vt 0.471413 0.964003
vt 0.007578 0.464088
vt 0.415001 0.625533
vt 0.221659 0.261497
vt 0.029344 0.545321
vt 0.415001 0.964003
vt 0.358590 0.625533
vt 0.281126 0.320963
vt 0.088810 0.604788
vt 0.358590 0.964003
vt 0.989100 0.016632
vt 0.536514 0.028473
vt 0.961822 0.016632
vt 0.644967 0.290161
vt 0.989100 0.299904
vt 0.948183 0.422786
vt 0.948183 0.422786
vt 0.975461 0.016632
vt 0.682694 0.324002
vt 0.975461 0.299904
vt 0.961822 0.422786
vt 0.942394 0.013579
vt 0.961822 0.422786
vt 0.948183 0.016632
vt 0.948183 0.016632
vt 0.961822 0.016632
vt 0.975461 0.422786
s 1
f 2/4/1 3/7/2 1/1/1
f 4/9/2 5/11/3 3/7/2
f 6/13/3 7/15/4 5/11/3
f 8/17/4 9/19/5 7/15/4
f 10/21/5 11/23/6 9/19/5
f 12/25/6 13/27/7 11/23/6
f 14/29/7 15/31/8 13/27/7
f 16/33/8 17/35/9 15/31/8
f 18/37/9 19/39/10 17/35/9
f 20/41/10 21/43/11 19/39/10
f 2/5/12 22/45/12 14/30/12
f 22/46/11 23/47/13 21/43/11
f 24/50/13 1/2/1 23/47/13
f 19/40/14 23/48/14 7/16/14
f 26/55/4 27/58/4 25/51/4
f 27/57/1 28/59/1 30/65/1
f 29/62/7 26/54/7 25/52/7
f 30/67/15 25/53/15 27/58/15
f 28/61/16 29/64/16 30/66/16
f 2/4/1 4/9/2 3/7/2
f 4/9/2 6/13/3 5/11/3
f 6/13/3 8/17/4 7/15/4
f 8/17/4 10/21/5 9/19/5
f 10/21/5 12/25/6 11/23/6
f 12/25/6 14/29/7 13/27/7
f 14/29/7 16/33/8 15/31/8
f 16/33/8 18/37/9 17/35/9
f 18/37/9 20/41/10 19/39/10
f 20/41/10 22/46/11 21/43/11
f 6/14/12 4/10/12 2/5/12
f 2/5/12 24/49/12 22/45/12
f 22/45/12 20/42/12 14/30/12
f 20/42/12 18/38/12 14/30/12
f 18/38/12 16/34/12 14/30/12
f 14/30/12 12/26/12 10/22/12
f 10/22/12 8/18/12 14/30/12
f 8/18/12 6/14/12 14/30/12
f 6/14/12 2/5/12 14/30/12
f 22/46/11 24/50/13 23/47/13
f 24/50/13 2/6/1 1/2/1
f 23/48/14 1/3/14 7/16/14
f 1/3/14 3/8/14 7/16/14
f 3/8/14 5/12/14 7/16/14
f 7/16/14 9/20/14 11/24/14
f 11/24/14 13/28/14 7/16/14
f 13/28/14 15/32/14 7/16/14
f 15/32/14 17/36/14 19/40/14
f 19/40/14 21/44/14 23/48/14
f 15/32/14 19/40/14 7/16/14
f 26/55/4 28/60/4 27/58/4
f 30/67/15 29/63/15 25/53/15
f 28/61/16 26/56/16 29/64/16
