# Blender v3.3.1 OBJ File: ''
# www.blender.org
o Cube.003
v -1.000000 -1.000000 1.000000
v -0.783872 1.000000 0.783872
v -1.000000 -1.000000 -1.000000
v -0.783872 1.000000 -0.783872
v 1.000000 -1.000000 1.000000
v 0.783872 1.000000 0.783872
v 1.000000 -1.000000 -1.000000
v 0.783872 1.000000 -0.783872
v -1.000000 1.000000 1.000000
v -1.000000 1.000000 -1.000000
v 1.000000 1.000000 -1.000000
v 1.000000 1.000000 1.000000
v -0.783872 0.801888 0.783872
v -0.783872 0.801888 -0.783872
v 0.783872 0.801888 -0.783872
v 0.783872 0.801888 0.783872
v -0.423016 0.647009 0.423016
v -0.423016 0.647009 -0.423016
v 0.423016 0.647009 -0.423016
v 0.423016 0.647009 0.423016
vt 0.625000 0.000000
vt 0.375000 0.250000
vt 0.375000 0.000000
vt 0.625000 0.250000
vt 0.375000 0.500000
vt 0.625000 0.500000
vt 0.375000 0.750000
vt 0.625000 0.750000
vt 0.375000 1.000000
vt 0.125000 0.750000
vt 0.125000 0.500000
vt 0.652016 0.527016
vt 0.652016 0.722984
vt 0.652016 0.722984
vt 0.847984 0.527016
vt 0.875000 0.750000
vt 0.847984 0.722984
vt 0.875000 0.500000
vt 0.847984 0.722984
vt 0.847984 0.722984
vt 0.847984 0.527016
vt 0.652016 0.527016
vt 0.847984 0.527016
vt 0.652016 0.722984
vt 0.652016 0.527016
vt 0.625000 1.000000
vn -1.0000 0.0000 0.0000
vn 0.0000 0.0000 -1.0000
vn 1.0000 0.0000 0.0000
vn 0.0000 0.0000 1.0000
vn 0.0000 -1.0000 0.0000
vn 0.0000 1.0000 0.0000
vn 0.0000 0.9189 -0.3944
vn 0.0000 0.9189 0.3944
vn -0.3944 0.9189 0.0000
vn 0.3944 0.9189 0.0000
s off
f 9/1/1 3/2/1 1/3/1
f 10/4/2 7/5/2 3/2/2
f 11/6/3 5/7/3 7/5/3
f 12/8/4 1/9/4 5/7/4
f 7/5/5 1/10/5 3/11/5
f 8/12/1 16/13/1 6/14/1
f 4/15/6 9/16/6 2/17/6
f 8/12/6 10/18/6 4/15/6
f 6/14/6 11/6/6 8/12/6
f 2/17/6 12/8/6 6/14/6
f 16/13/7 17/19/7 13/20/7
f 2/17/3 14/21/3 4/15/3
f 6/14/2 13/20/2 2/17/2
f 4/15/4 15/22/4 8/12/4
f 18/23/6 20/24/6 19/25/6
f 14/21/8 19/25/8 15/22/8
f 15/22/9 20/24/9 16/13/9
f 13/20/10 18/23/10 14/21/10
f 9/1/1 10/4/1 3/2/1
f 10/4/2 11/6/2 7/5/2
f 11/6/3 12/8/3 5/7/3
f 12/8/4 9/26/4 1/9/4
f 7/5/5 5/7/5 1/10/5
f 8/12/1 15/22/1 16/13/1
f 4/15/6 10/18/6 9/16/6
f 8/12/6 11/6/6 10/18/6
f 6/14/6 12/8/6 11/6/6
f 2/17/6 9/16/6 12/8/6
f 16/13/7 20/24/7 17/19/7
f 2/17/3 13/20/3 14/21/3
f 6/14/2 16/13/2 13/20/2
f 4/15/4 14/21/4 15/22/4
f 18/23/6 17/19/6 20/24/6
f 14/21/8 18/23/8 19/25/8
f 15/22/9 19/25/9 20/24/9
f 13/20/10 17/19/10 18/23/10
