# Blender v3.3.1 OBJ File: ''
# www.blender.org
o Pillar
v -0.182348 1.745687 0.182348
v -0.182348 1.745687 -0.182348
v 0.182348 1.745687 0.182348
v 0.182348 1.745687 -0.182348
v -0.155834 2.197045 0.155834
v -0.182348 2.154908 0.182348
v -0.155834 2.197045 -0.155834
v -0.182348 2.154908 -0.182348
v 0.155834 2.197045 0.155834
v 0.182348 2.154908 0.182348
v 0.155834 2.197045 -0.155834
v 0.182348 2.154908 -0.182348
v -0.319023 0.250070 0.295599
v -0.295599 0.250070 0.319023
v -0.312162 0.250070 0.312162
v -0.295599 0.250070 -0.319023
v -0.319023 0.250070 -0.295599
v -0.312162 0.250070 -0.312162
v -0.319023 1.749930 -0.295363
v -0.295363 1.749930 -0.319023
v -0.312093 1.749930 -0.312093
v 0.319023 0.250070 0.295599
v 0.295599 0.250070 0.319023
v 0.312162 0.250070 0.312162
v 0.319023 1.749930 0.295363
v 0.295363 1.749930 0.319023
v 0.312093 1.749930 0.312093
v 0.319023 0.250070 -0.295599
v 0.295599 0.250070 -0.319023
v 0.312162 0.250070 -0.312162
v 0.295363 1.749930 -0.319023
v 0.319023 1.749930 -0.295363
v 0.312093 1.749930 -0.312093
v -0.319023 -0.000000 -0.295660
v -0.295660 -0.000000 -0.319023
v -0.312180 -0.000000 -0.312180
v -0.295660 -0.000000 0.319023
v -0.319023 -0.000000 0.295660
v -0.312180 -0.000000 0.312180
v -0.295363 1.749930 0.319023
v -0.319023 1.749930 0.295363
v -0.312093 1.749930 0.312093
v 0.295660 -0.000000 -0.319023
v 0.319023 -0.000000 -0.295660
v 0.312180 -0.000000 -0.312180
v 0.319023 -0.000000 0.295660
v 0.295660 -0.000000 0.319023
v 0.312180 -0.000000 0.312180
v -0.236558 0.324124 0.260062
v -0.260062 0.324124 0.236557
v -0.253178 0.324124 0.253178
v -0.260062 1.675876 0.236497
v -0.236497 1.675876 0.260062
v -0.253160 1.675876 0.253160
v -0.260062 1.675876 -0.236497
v -0.236497 1.675876 -0.260062
v -0.253160 1.675876 -0.253160
v -0.260062 0.324124 -0.236558
v -0.236558 0.324124 -0.260062
v -0.253178 0.324124 -0.253178
v 0.236497 1.675876 -0.260062
v 0.260062 1.675876 -0.236497
v 0.253160 1.675876 -0.253160
v 0.236557 0.324124 -0.260062
v 0.260062 0.324124 -0.236558
v 0.253178 0.324124 -0.253178
v 0.260062 1.675876 0.236497
v 0.236497 1.675876 0.260062
v 0.253160 1.675876 0.253160
v 0.236557 0.324124 0.260062
v 0.260062 0.324124 0.236557
v 0.253178 0.324124 0.253178
v -0.319023 1.972202 0.295282
v -0.295282 1.972202 0.319023
v -0.312070 1.972202 0.312070
v -0.291225 2.000000 0.267369
v -0.267369 2.000000 0.291225
v -0.284238 2.000000 0.284238
v -0.267369 2.000000 -0.291225
v -0.291225 2.000000 -0.267369
v -0.284238 2.000000 -0.284238
v -0.295282 1.972202 -0.319023
v -0.319023 1.972202 -0.295282
v -0.312070 1.972202 -0.312070
v 0.291225 2.000000 -0.267369
v 0.267369 2.000000 -0.291225
v 0.284238 2.000000 -0.284238
v 0.319023 1.972202 -0.295282
v 0.295282 1.972202 -0.319023
v 0.312070 1.972202 -0.312070
v 0.267369 2.000000 0.291225
v 0.291225 2.000000 0.267369
v 0.284238 2.000000 0.284238
v 0.295282 1.972202 0.319023
v 0.319023 1.972202 0.295282
v 0.312070 1.972202 0.312070
vt 0.593741 0.759270
vt 0.621525 0.990698
vt 0.593741 0.990730
vt 0.593741 0.509270
vt 0.593741 0.738673
vt 0.593741 0.511327
vt 0.406259 0.240822
vt 0.375000 0.009154
vt 0.406259 0.009178
vt 0.406259 0.490822
vt 0.375000 0.259154
vt 0.406259 0.259178
vt 0.406259 0.761298
vt 0.593741 0.988673
vt 0.406259 0.988702
vt 0.365846 0.750000
vt 0.125000 0.740846
vt 0.365846 0.500000
vt 0.856824 0.518176
vt 0.643176 0.731824
vt 0.643176 0.518176
vt 0.582797 0.500000
vt 0.375000 0.750000
vt 0.375000 0.500000
vt 0.582797 0.000000
vt 0.375000 0.250000
vt 0.375000 0.000000
vt 0.125000 0.750000
vt 0.125000 0.500000
vt 0.582797 0.250000
vt 0.406259 0.488702
vt 0.645239 0.510892
vt 0.865698 0.500000
vt 0.854761 0.510892
vt 0.593741 0.009270
vt 0.621525 0.240698
vt 0.593741 0.240730
vt 0.593741 0.761327
vt 0.621525 0.740698
vt 0.593741 0.740730
vt 0.406259 0.238702
vt 0.406259 0.509178
vt 0.406259 0.738702
vt 0.406259 0.740822
vt 0.593741 0.261327
vt 0.406259 0.261298
vt 0.406259 0.511298
vt 0.854761 0.739108
vt 0.634302 0.750000
vt 0.645239 0.739108
vt 0.406259 0.011298
vt 0.593741 0.238673
vt 0.593741 0.011327
vt 0.593741 0.490730
vt 0.621525 0.259302
vt 0.621525 0.490698
vt 0.406259 0.990822
vt 0.375000 0.759154
vt 0.406259 0.759178
vt 0.375000 0.740846
vt 0.375000 0.509154
vt 0.875000 0.750000
vt 0.856824 0.731824
vt 0.875000 0.500000
vt 0.625000 0.750000
vt 0.582797 0.750000
vt 0.375000 1.000000
vt 0.635892 0.729761
vt 0.621525 0.509302
vt 0.635892 0.520239
vt 0.864108 0.520239
vt 0.875000 0.740698
vt 0.864108 0.729761
vt 0.593741 0.259270
vt 0.593741 0.488673
vt 0.593741 0.000000
vt 0.593741 0.000000
vt 0.593741 1.000000
vt 0.593741 1.000000
vt 0.406259 1.000000
vt 0.406259 1.000000
vt 0.406259 0.000000
vt 0.406259 0.000000
vt 0.406259 0.500000
vt 0.406259 0.250000
vt 0.406259 0.250000
vt 0.375000 0.990846
vt 0.375000 1.000000
vt 0.375000 0.000000
vt 0.375000 0.240846
vt 0.406259 0.500000
vt 0.375000 0.490846
vt 0.406259 0.750000
vt 0.593741 0.250000
vt 0.593741 0.500000
vt 0.593741 0.750000
vt 0.406259 0.750000
vt 0.865698 0.750000
vt 0.863196 0.738196
vt 0.873184 0.748184
vt 0.863196 0.511805
vt 0.875000 0.509302
vt 0.635892 0.510892
vt 0.634302 0.500000
vt 0.635892 0.739108
vt 0.621525 0.250000
vt 0.621525 1.000000
vt 0.621525 0.000000
vt 0.621525 0.750000
vt 0.593741 0.750000
vt 0.621525 0.500000
vt 0.621525 0.759302
vt 0.125000 0.509154
vt 0.134154 0.500000
vt 0.127681 0.502681
vt 0.372319 0.502681
vt 0.372319 0.747319
vt 0.134154 0.750000
vt 0.127681 0.747319
vt 0.621525 0.009302
vt 0.625000 0.500000
vt 0.582797 1.000000
vt 0.638630 0.513630
vt 0.638630 0.736370
vt 0.375000 0.250000
vt 0.375000 0.500000
vt 0.375000 0.750000
vt 0.593741 0.500000
vt 0.593741 0.250000
vt 0.873184 0.501816
vt 0.623921 0.501816
vt 0.626816 0.501816
vt 0.626816 0.748184
vt 0.623921 0.748184
vn 0.0000 0.0000 1.0000
vn 0.7823 -0.6229 0.0000
vn -1.0000 0.0000 0.0000
vn 0.0000 0.0000 -1.0000
vn 0.0000 -1.0000 0.0000
vn 0.0000 1.0000 0.0000
vn 1.0000 0.0000 0.0000
vn -0.0000 0.6229 -0.7823
vn 0.0000 0.7071 -0.7071
vn 0.0000 -0.6229 0.7823
vn -0.7823 0.6229 -0.0000
vn 0.7823 0.6229 -0.0000
vn -0.0000 0.7071 0.7071
vn -0.7823 -0.6229 0.0000
vn -0.8464 0.5326 0.0000
vn 0.0000 0.5326 -0.8464
vn 0.8464 0.5326 0.0000
vn 0.0000 0.5326 0.8464
vn 0.7071 0.7071 0.0000
vn -0.7071 0.7071 0.0000
vn 0.0000 -0.6229 -0.7823
vn -0.6404 -0.7208 0.2653
vn -0.2653 -0.7208 0.6404
vn -0.2652 0.7211 0.6401
vn -0.6401 0.7211 0.2652
vn 0.6401 0.7211 -0.2651
vn 0.2651 0.7211 -0.6401
vn -0.6401 0.7211 -0.2652
vn -0.2652 0.7211 -0.6401
vn -0.3827 0.0001 0.9239
vn -0.9239 0.0001 0.3827
vn -0.3827 0.0001 -0.9239
vn -0.9239 0.0001 -0.3827
vn 0.9239 0.0001 -0.3827
vn 0.3827 0.0001 -0.9239
vn 0.3827 0.0001 0.9239
vn 0.9239 0.0001 0.3827
vn -0.3827 0.0000 0.9239
vn -0.9239 0.0000 0.3827
vn -0.3827 0.0000 -0.9239
vn -0.9239 0.0000 -0.3827
vn 0.9239 0.0000 -0.3827
vn 0.3827 0.0000 -0.9239
vn 0.3827 0.0000 0.9239
vn 0.9239 0.0000 0.3827
vn 0.6404 -0.7208 0.2653
vn 0.2653 -0.7208 0.6404
vn 0.2653 -0.7208 -0.6404
vn 0.6404 -0.7208 -0.2653
vn -0.6404 -0.7208 -0.2653
vn -0.2653 -0.7208 -0.6404
vn 0.6401 0.7211 0.2652
vn 0.2652 0.7211 0.6401
vn -0.2324 0.7945 0.5611
vn -0.5611 0.7945 0.2324
vn -0.2324 0.7945 -0.5611
vn -0.5611 0.7945 -0.2324
vn 0.5611 0.7945 -0.2324
vn 0.2324 0.7945 -0.5611
vn 0.2324 0.7945 0.5611
vn 0.5611 0.7945 0.2324
vn -0.0000 0.6229 0.7823
vn 0.6401 0.7211 -0.2652
vn 0.2652 0.7211 -0.6401
vn -0.6401 0.7211 -0.2651
vn 0.6401 0.7211 0.2651
s off
f 26/1/1 74/2/1 40/3/1
f 32/4/2 67/5/2 62/6/2
f 17/7/3 38/8/3 13/9/3
f 29/10/4 35/11/4 16/12/4
f 70/13/1 53/14/1 49/15/1
f 47/16/5 38/17/5 43/18/5
f 7/19/6 9/20/6 11/21/6
f 12/22/7 3/23/7 4/24/7
f 6/25/3 2/26/3 1/27/3
f 4/24/5 1/28/5 2/29/5
f 8/30/4 4/24/4 2/26/4
f 16/12/8 64/31/8 29/10/8
f 86/32/9 82/33/9 79/34/9
f 41/35/3 83/36/3 19/37/3
f 40/3/10 68/38/10 26/1/10
f 32/4/7 95/39/7 25/40/7
f 13/9/11 58/41/11 17/7/11
f 28/42/12 71/43/12 22/44/12
f 56/45/4 64/31/4 59/46/4
f 62/6/7 71/43/7 65/47/7
f 77/48/13 94/49/13 91/50/13
f 50/51/3 55/52/3 58/41/3
f 19/37/14 52/53/14 41/35/14
f 31/54/4 82/55/4 89/56/4
f 14/57/1 47/58/1 23/59/1
f 28/42/7 46/60/7 44/61/7
f 7/19/15 6/62/15 5/63/15
f 11/21/16 8/64/16 7/19/16
f 9/20/17 12/22/17 11/21/17
f 5/63/18 10/65/18 9/20/18
f 10/66/1 1/67/1 3/23/1
f 77/48/6 92/68/6 79/34/6
f 92/68/19 88/69/19 85/70/19
f 80/71/20 73/72/20 76/73/20
f 20/74/21 61/75/21 56/45/21
f 41/35/22 54/76/22 42/77/22
f 54/78/23 40/3/23 42/79/23
f 14/57/24 51/80/24 15/81/24
f 51/82/25 13/9/25 15/83/25
f 28/42/26 66/84/26 65/47/26
f 66/84/27 29/10/27 64/31/27
f 17/7/28 60/85/28 18/86/28
f 60/85/29 16/12/29 18/86/29
f 37/87/30 15/81/30 39/88/30
f 15/83/31 38/8/31 39/89/31
f 35/11/32 18/86/32 16/12/32
f 18/86/33 34/90/33 17/7/33
f 44/61/34 30/91/34 28/42/34
f 30/91/35 43/92/35 29/10/35
f 47/58/36 24/93/36 23/59/36
f 24/93/37 46/60/37 22/44/37
f 49/15/38 54/78/38 51/80/38
f 54/76/39 50/51/39 51/82/39
f 59/46/40 57/94/40 56/45/40
f 57/94/41 58/41/41 55/52/41
f 65/47/42 63/95/42 62/6/42
f 63/95/43 64/31/43 61/75/43
f 70/13/44 69/96/44 68/38/44
f 69/96/45 71/43/45 67/5/45
f 25/40/46 69/96/46 67/5/46
f 69/96/47 26/1/47 68/38/47
f 31/54/48 63/95/48 61/75/48
f 63/95/49 32/4/49 62/6/49
f 19/37/50 57/94/50 55/52/50
f 57/94/51 20/74/51 56/45/51
f 22/44/52 72/97/52 24/93/52
f 72/97/53 23/59/53 24/93/53
f 74/98/54 78/99/54 75/100/54
f 78/99/55 73/72/55 75/100/55
f 82/33/56 81/101/56 79/34/56
f 81/101/57 83/102/57 80/71/57
f 88/69/58 87/103/58 85/70/58
f 87/103/59 89/104/59 86/32/59
f 94/49/60 93/105/60 91/50/60
f 93/105/61 95/39/61 92/68/61
f 20/74/32 84/106/32 82/55/32
f 84/106/33 19/37/33 83/36/33
f 40/3/30 75/107/30 42/79/30
f 75/108/31 41/35/31 42/77/31
f 25/40/37 96/109/37 27/110/37
f 96/109/36 26/1/36 27/110/36
f 32/4/34 90/111/34 88/69/34
f 90/111/35 31/54/35 89/56/35
f 23/59/62 49/15/62 14/57/62
f 26/1/1 94/112/1 74/2/1
f 32/4/2 25/40/2 67/5/2
f 17/7/3 34/90/3 38/8/3
f 29/10/4 43/92/4 35/11/4
f 70/13/1 68/38/1 53/14/1
f 38/17/5 34/113/5 35/114/5
f 34/113/5 36/115/5 35/114/5
f 35/114/5 43/18/5 38/17/5
f 43/18/5 45/116/5 44/61/5
f 44/61/5 46/60/5 47/16/5
f 46/60/5 48/117/5 47/16/5
f 47/16/5 37/118/5 38/17/5
f 37/118/5 39/119/5 38/17/5
f 43/18/5 44/61/5 47/16/5
f 7/19/6 5/63/6 9/20/6
f 12/22/7 10/66/7 3/23/7
f 6/25/3 8/30/3 2/26/3
f 4/24/5 3/23/5 1/28/5
f 8/30/4 12/22/4 4/24/4
f 16/12/8 59/46/8 64/31/8
f 86/32/9 89/104/9 82/33/9
f 41/35/3 73/120/3 83/36/3
f 40/3/10 53/14/10 68/38/10
f 32/4/7 88/69/7 95/39/7
f 13/9/11 50/51/11 58/41/11
f 28/42/12 65/47/12 71/43/12
f 56/45/4 61/75/4 64/31/4
f 62/6/7 67/5/7 71/43/7
f 77/48/13 74/98/13 94/49/13
f 50/51/3 52/53/3 55/52/3
f 19/37/14 55/52/14 52/53/14
f 31/54/4 20/74/4 82/55/4
f 14/57/1 37/87/1 47/58/1
f 28/42/7 22/44/7 46/60/7
f 7/19/15 8/64/15 6/62/15
f 11/21/16 12/121/16 8/64/16
f 9/20/17 10/66/17 12/22/17
f 5/63/18 6/62/18 10/65/18
f 10/66/1 6/122/1 1/67/1
f 92/68/6 85/70/6 86/32/6
f 85/70/6 87/123/6 86/32/6
f 86/32/6 79/34/6 92/68/6
f 79/34/6 81/101/6 80/71/6
f 80/71/6 76/73/6 77/48/6
f 76/73/6 78/99/6 77/48/6
f 77/48/6 91/50/6 92/68/6
f 91/50/6 93/124/6 92/68/6
f 79/34/6 80/71/6 77/48/6
f 92/68/19 95/39/19 88/69/19
f 80/71/20 83/102/20 73/72/20
f 20/74/21 31/54/21 61/75/21
f 41/35/22 52/53/22 54/76/22
f 54/78/23 53/14/23 40/3/23
f 14/57/24 49/15/24 51/80/24
f 51/82/25 50/51/25 13/9/25
f 28/42/63 30/91/63 66/84/63
f 66/84/64 30/91/64 29/10/64
f 17/7/65 58/41/65 60/85/65
f 60/85/29 59/46/29 16/12/29
f 37/87/30 14/57/30 15/81/30
f 15/83/31 13/9/31 38/8/31
f 35/11/32 36/125/32 18/86/32
f 18/86/33 36/125/33 34/90/33
f 44/61/34 45/126/34 30/91/34
f 30/91/35 45/126/35 43/92/35
f 47/58/36 48/127/36 24/93/36
f 24/93/37 48/127/37 46/60/37
f 49/15/38 53/14/38 54/78/38
f 54/76/39 52/53/39 50/51/39
f 59/46/40 60/85/40 57/94/40
f 57/94/41 60/85/41 58/41/41
f 65/47/42 66/84/42 63/95/42
f 63/95/43 66/84/43 64/31/43
f 70/13/44 72/97/44 69/96/44
f 69/96/45 72/97/45 71/43/45
f 25/40/46 27/110/46 69/96/46
f 69/96/47 27/110/47 26/1/47
f 31/54/48 33/128/48 63/95/48
f 63/95/49 33/128/49 32/4/49
f 19/37/50 21/129/50 57/94/50
f 57/94/51 21/129/51 20/74/51
f 22/44/66 71/43/66 72/97/66
f 72/97/53 70/13/53 23/59/53
f 74/98/54 77/48/54 78/99/54
f 78/99/55 76/73/55 73/72/55
f 82/33/56 84/130/56 81/101/56
f 81/101/57 84/130/57 83/102/57
f 88/69/58 90/131/58 87/103/58
f 87/103/59 90/132/59 89/104/59
f 94/49/60 96/133/60 93/105/60
f 93/105/61 96/134/61 95/39/61
f 20/74/32 21/129/32 84/106/32
f 84/106/33 21/129/33 19/37/33
f 40/3/30 74/2/30 75/107/30
f 75/108/31 73/120/31 41/35/31
f 25/40/37 95/39/37 96/109/37
f 96/109/36 94/112/36 26/1/36
f 32/4/34 33/128/34 90/111/34
f 90/111/35 33/128/35 31/54/35
f 23/59/62 70/13/62 49/15/62
